<?xml version="1.0" encoding="UTF-8" standalone="no"?> <svg width="512" height="512" viewBox="0 0 512 512" fill="none" xmlns="http://www.w3.org/2000/svg">
<path fill-rule="evenodd" clip-rule="evenodd" d="M128 32C74.9807 32 32 74.9807 32 128V384C32 437.019 74.9807 480 128 480H384C437.019 480 480 437.019 480 384V128C480 74.9807 437.019 32 384 32H128ZM352 148H172V364H340V276H256C244.954 276 236 267.046 236 256C236 244.954 244.954 236 256 236H344C363.882 236 380 252.118 380 272V368C380 387.882 363.882 404 344 404H168C148.118 404 132 387.882 132 368V144C132 124.118 148.118 108 168 108H352C363.046 108 372 116.954 372 128C372 139.046 363.046 148 352 148Z" fill="black"/>
</svg>
